<?xml version="1.0" encoding="UTF-8"?>
<svg version="1.1" viewBox="0 0 1024 1024" width="256" height="256" xmlns="http://www.w3.org/2000/svg">
<path transform="translate(395,2)" d="m0 0h13l12 4 11 6 13 11 11 12 10 15 6 10 9 20 9 26 28-2 16-1h28l31 3 20 4 18 6 19 9 14 10 10 9 4 2 9-4 16-5 22-4h34l18 3 15 4 19 8 13 7 13 9 11 9 14 14 10 13 8 13 8 16 7 20 4 19 1 8v30l-5 26-7 20-11 21-9 12-12 14-7 6-1 5 1 12v18l-2 25-5 23-6 20-8 23-11 39-6 20-8 22-8 16-8 14-8 10-9 10-11 10-15 10-21 10-16 5h-2l6 11 4 9 3 12 11 23 11 28 8 24 5 21 3 19 2 23v15l-3 23-4 12-6 10-8 8-7 4-8 2h-7l-13-4-11-8-4-3v15l-5 26-8 31-6 20-2 6h-278v-20l-14-1-11-4-9-6-9-10-8-13-6-15-6-22-4-25-1-10v-33l4-36 5-28 7-25 6-16 3-7-5-3 2-9 2-7-8-3-31-9-24-9-25-11-23-12-9-7-10-10-10-15-8-18-5-15-6-25-5-33-5-44-4-23-10-3-16-7-14-8-12-9-10-9-11-11-11-15-8-14-7-15-6-18-4-20-1-8v-28l3-20 5-19 6-15 8-16 10-16 9-11 12-13 14-12 15-10 16-9 7-2-9-11-7-11-5-13-2-9-1-19 1-14v-19l3-15 5-13 9-14 12-12 12-7 14-4 6-1h21l19 5 15 8 12 9 11 11 9 12 9 17 5 16 2 18 6-2 12-8 13-13 7-10 7-12 8-21 8-31 6-12 7-8 8-5zm2 21-6 4-4 6-9 32-8 20-8 15-10 13-12 12-10 7-3 3 41-2 62-15 6-2-1-8-2-5h27l-7-22-7-16-9-15-7-9-11-11-14-7zm-77 114-15 5-2 2-3 11-4 9 1 2 22-4 17-3 1-2-10-15-4-5z" fill="#020303"/>
<path transform="translate(456,121)" d="m0 0 21 2 30 5 23 6 13 4 5 1 3 2 30 4 24 5 15 5 23 11 21 13 22 15 13 10 12 10 9 7 13 12 29 29 9 11 14 18 10 15 13 22 10 21 10 30 5 24 2 20v22l-2 19-5 23-8 26-9 29-10 36-8 24-9 20-10 16-11 13-9 9-14 10-17 9-47 16-11 3-1-3h-3v16l3 12 5 11 19 37 7 19 4 19 2 23-1 20-1 3h-6l-4-4v-40l-2-22-4-16-7-19-10-18-10-14-6-10-2-7 1-6h-12l-17-4-2-2 7-2 30-7 27-9 18-8 19-10 17-12 14-12 13-13 9-11 10-13 11-19 9-19 9-27 8-36 2-14v-30l-4-20-7-19-8-16-10-16-9-12-18-20-13-12-10-7-18-7-24-7-22-4-3-3v-4h-2l-1 7-10 10-11 7-9 3-6 1h-10l-5-3-4-5-3-7 1-8 5-21 5-9 4 4 2 6v12l10-5 3-6 1-8-3-16-5-13-7-12-8-10-7-8-11-9-10-7-19-10-16-5-11-1-9 3-5 4-4 7-2 9v10l7 36 4 20 5 16 3 4v2l5 2h7l4-2 2-4 10-13 4-2 4 5 7 15 3 14-1 6-7 5-4 1h-23l-17-3-18-5-13-6-7-6-3-3 3 12 3 5-1 3-16 6-23 11-18 10-18 11-19 14-14 12-10 9h-2l-1 3-8 7-12 13-8 10-9 11-1-2 10-21 12-22 9-14-9 7-11 10-12 16-8 14-10 26-12 37-11 39-6 29-3 21-2 24v20l3 20 5 18 5 9 9 11 9 7-3-4-8-11-8-17-4-20v-11l4 5 8 11 9 10 10 9 17 10 16 8 21 8 25 7 26 5 31 4 31 2h38l18-1 5-1-1 3-10 6h-6l-9-4 6 7 7 7 6 13 3 16 1 11v10l-2 19-5 21-7 19-5 9-4-1-1-5 2-15 5-22 4-17 1-6v-25l-4-13-5-9-6-7-6 1-13 4-30 5-15 2-25 1h-15l-33-2-34-5-24-5-28-8-28-10-26-12-19-10-9-7-8-8-8-13-7-14-9-27-6-29-4-27-4-34-4-20v-5l14 2 23 1 9-1-28-6-24-8-21-10-15-11-10-9-10-10-11-16-12-23-6-18-4-20-1-9v-25l3-19 5-18 8-18 9-14 10-13 12-13 14-11 14-9 16-8 18-6 14-3 8-1h34l19 3 17 5 16 7 18 10 16 12 14 13-3-9-6-11-8-11-9-10-8-8-14-10-15-8-8-4v-2l22-5 21-3 21-2 10-3 4-4v-8l-5-9 2-1h30l34 2 30 4 23 4-6-21-3-11z" fill="#9DB2B9"/>
<path transform="translate(671,319)" d="m0 0h7l32 8 21 7 12 6 15 14 9 9 6 9 4 8 10 30 7 23 5 21 2 15v14l-3 27-5 20-6 18-8 16-10 16-8 10-11 12-7 8-11 9-16 12-18 11-19 10-26 10-27 8-27 6-28 5-33 4-29 2h-26l-35-3-24-3-34-7-30-8-9-3-12-5-4-3v-2h-2l-2-3 1-7-5-1-3-4 4-1 3 1-1-8-3 5-7 2-5-6-4-9 1-2 1 3h4l1-4h2l-1-2h-7l-4-2-2-14v-24l4-27 7-27 9-25 10-20 9-15 13-19 10-12 9-11 16-16 11-9 10-9 16-12 20-13 22-12 10-5 10-4 12-5 8-3 5 1 8 5 12 4 16 2h18l15-2 10-4 6-5 2-4 3 1 7 8 7 3 15-1 9-1 9-5 10-8z" fill="#AEC4DD"/>
<path transform="translate(454,787)" d="m0 0h15l5 18 3 3 10-1 11-4 6-3 4 4 3 8 2 7 10-5 4-1v7l-1 5v24l3 9v7l-4 11v5l4-1 6-8 4-9 2-7 6-10 10-22 3-6 3 1 6 7 4 1 7-9 5 2 10 8 4 5 3 9 3 34v43l-3 25-5 24-7 24-11 26-3 6h-184l-1-13v-10l9-5 9-8 7-11 5-10 7-22 6-29 10-82 6-35 3-11z" fill="#CEDAE0"/>
<path transform="translate(183,302)" d="m0 0h31l26 2 20 4 16 6 15 8 11 9 7 7 5 8 2 1-2 4-7 6-3 6-10 14-10 18-8 17-10 25-11 28-7 12-8 6-8 3h-20l-15-4-21-10-17-11-10-8-13-12-9-10-10-16-6-14-3-11-1-7v-14l2-14 6-16 6-10 9-10 11-8 12-5 17-3z" fill="#CEDAE0"/>
<path transform="translate(365,741)" d="m0 0 3 1 10 16 4 1 14-8 4 1 9 16 2 2 5-1 4-2 12-1 3 4 6 14 5 4-1 5-11 28-7 24-4 19-3 23-3 29-4 24-6 21-8 16-7 7-8 4h-9l-9-4-8-7-7-10-7-15-5-16-5-26-2-24 1-27 4-36 5-26 6-22 7-19 5-10z" fill="#9DB2B9"/>
<path transform="translate(206,48)" d="m0 0h18l14 3 12 6 12 9 12 12 8 13 6 13 4 15v11l-1 2-5 1h-22l-19-3-9-1 10 6 14 6 15 3 14 1-1 6-4 10-7 10-5 3-12 5h-43l-18 3-19 5-5-1-6-4-6-5-9-13-6-12-5-19-1-4v-11l2 2 8-24 8-16 9-11 7-7 14-9 11-4z" fill="#ADC3DB"/>
<path transform="translate(661,776)" d="m0 0 12 2 4 3 3 17 1 12v41l4 10 5 7v28l-3 24-4 15-5 12-12 22-11 16-12 16-11 13-9 10h-40l2-6 10-22 8-22 5-18 4-24 2-28v-23l-2-31-3-29v-11l7 6 7 7 3 1 1-7 6-21h6l21 8v-27z" fill="#CDDAE0"/>
<path transform="translate(454,787)" d="m0 0h15l5 18 3 3 5 1-4 1 4 14 1 6v10l-5 30-2 11-1 12-1 32 1 20 6 29 11 25 9 13 9 11v1h-118l-1-13v-10l9-5 9-8 7-11 5-10 7-22 6-29 10-82 6-35 3-11z" fill="#9EB3B9"/>
<path transform="translate(727,154)" d="m0 0h35l20 4 16 6 16 8 12 8 13 11 10 10 13 18 8 16 5 13 4 16 2 15v24l-3 21-5 16-7 16-11 18-11 13-2-1-5-19-1-9 15-14 10-11 8-15 4-14 1-6v-22l-3-14-6-12-4-5-10-8-16-8-12-4-12-2h-24l-16 3-13 5-3 2-4-1-10-9-8-8-11-9-16-13-14-10-15-11v-2l21-9 17-5z" fill="#9EB3B9"/>
<path transform="translate(414,395)" d="m0 0h16l27 5 16 5 14 7 10 9 5 8 3 12v10l-4 16-4 9-7 11-9 9-11 7-9 3-5 1h-14l-12-3-13-7-10-9-7-8-5-10-3-15v-12l4-20 6-12 2-7 8-8z" fill="#FC4401"/>
<path transform="translate(415,231)" d="m0 0 16 1 13 4 8 4 11 8 8 10 5 11 1 3v16l-3 10-6 9-8 8-10 6-9 4-10 2h-17l-13-4-10-6-8-7-7-10-7-13-2-10v-10l4-11 6-8 9-8 12-6z" fill="#020202"/>
<path transform="translate(790,234)" d="m0 0h25l17 4 16 8 9 8 6 10 3 12v25l-4 15-8 16-8 10-11 11-3-1-9-20-11-22-12-19-10-14-11-14-9-10-7-8-5-5 1-3z" fill="#CCD9DF"/>
<path transform="translate(528,729)" d="m0 0h3l7 14 2 9v16l-3 15-5 17-4 5h-2v2l-6 3-4-1-5-10-5-6-16 8-6 2-5-1-3-9-2-12-26 1-3-1-6-13-3-6h-13l-11 2-9-17-3-1-10 3-9 5-10-15v-2l23 3 34 2 35-1 25-3 22-4 16-4z" fill="#CDD9DF"/>
<path transform="translate(711,354)" d="m0 0 5 1 8 6 7 7 9 13 8 16 5 17 2 13-1 16-4 12-7 9-8 5-5 1h-7l-10-3-11-8-7-10-5-13-3-14v-24l5-13 6-10 2-3 1-4 4-8z" fill="#FC4401"/>
<path transform="translate(390,444)" d="m0 0h1l1 10 2 7 3 11 6 11 11 11 10 6 13 6 5 2v3l-5 5-11 13-9 11-12 13-17 17-7 5-2-2-2-12-17 1-7 1-2-2 1-6 3-7v-3l-17 1 1-5 11-17 11-16 14-26 7-12 5-11 2-10z" fill="#CFDBE1"/>
<path transform="translate(196,289)" d="m0 0h25l17 2 16 4 16 6 13 7 9 7 10 9 6 8 4 8-1 2-11-12-12-9-19-9-17-5-20-3-18-1h-31l-21 2-15 4-11 6-12 11-8 13-6 16-2 14v14l3 15 6 15 7 12 7 9 9 10 12 11 16 11 16 9 16 7 12 3h20l10-4 6-5 8-16 14-36 7-17 8-16 8-14 10-14 5-5-2 5-12 21-11 25-14 39-7 21-5 9-11 10-8 4-12 3-15-1-16-4-16-7-18-10-14-10-11-9-12-12-9-12-8-14-5-12-3-11-2-16 1-20 5-18 8-15 9-11 9-8 16-8 18-5 14-2z" fill="#020202"/>
<path transform="translate(703,731)" d="m0 0 3 3 13 30 12 34 5 18 4 20 2 14 1 13v20l-3 18-5 13-7 8-10 4-9-3-9-7-8-9-2-7 2-6 5-5 4-10 3-10 3-6 3-15v-37l-3-18-6-21-4-11 1-3 8 1-1-14z" fill="#9CB1B7"/>
<path transform="translate(686,214)" d="m0 0h12l14 5 11 8 5 4 11 14 6 12 3 9 1 13-3 10-4 5-8 5-8 2-11-1-10-4-9-7-8-10-8-12-7-10-4-10-1-5v-9l4-10 8-7z" fill="#020202"/>
<path transform="translate(512,333)" d="m0 0h4v8l-2 10-5 20-1 7 3-3 9-19 5-7 4-1-2 11-5 12-12 25-6 15-4 8 2 1-4 1-6-6-7-3-14-7-10-3-7-3-22-4-7-1-3-3v-2h6l1-4 2-1 1-3 5-2-2-2h-6l4-4 17-11 22-12 10-5 10-4 12-5z" fill="#CDD9E0"/>
<path transform="translate(530,253)" d="m0 0h2v2h2l5 25 5 16 3 4v2l5 2h7l4-2 2-4 10-13 4-2 4 5 7 15 3 14-1 6-7 5-4 1h-23l-17-3-18-5-13-6-7-6-3-3 3 12 3 5-1 3-16 6-10 2 3-3 2-8 7-21 9-17 9-11 11-12 8-7z" fill="#CBD8DE"/>
<path transform="translate(602,701)" d="m0 0 10 3 15 4 18 2 3 2 3 10 12 20 7 14 4 11v4l-21-1v24l-5-1-17-6h-2l-6 25-4-1-12-11-2-11-4-33v-4l15-3 8-3 3-1 1-9-7-12-9-11-10-11z" fill="#CBD7DE"/>
<path transform="translate(741,381)" d="m0 0 4 4 11 18 2 4v3h2l3 8 7 10 2 5 2 7 3 7 7 21 4 26-1 7-2 2-7-1-1 14-3 9h-3l-15-14-11-13-10-13-5-9 1-6 11-6 7-9 4-12 1-16-3-17-6-18-4-8z" fill="#CEDAE0"/>
<path transform="translate(636,247)" d="m0 0 5 3 14 11 10 10 8 6 7 10 9 13 2 4v3l6 3v2l2 1h-10l-13-3-1-6h-2l-1 7-10 10-11 7-9 3-6 1h-10l-5-3-4-5-3-7 1-8 5-21 5-9 4 4 2 6v12l10-5 3-6 1-8-3-16-5-13z" fill="#CBD8DE"/>
<path transform="translate(671,319)" d="m0 0h7l32 8 21 7 12 6 15 14 9 9 6 9 4 8 10 30 2 10-4-4-2-6-3-3-2-5-7-10v-2l-7 1-9 3-2-1v-2l-4-2-4-6v-2h-2l-4-5-3-5-1-3-4-1-2-4-4-2-2-4-5-2h-2l-5-1 1-3h4l-1-3h2l-1-3 1-3-5-2 1-5-6-1-4 1-3-3-6-3-4 1v2h-5l1-3-2-2-3-1-1 2h-2v3l-1 4-6 2v3l-5-1-3-2-1-3-4 2 1 4-5 5-6 3-3-3 6-2 3-5-6 1 2-2 7-4 9-8z" fill="#798C97"/>
<path transform="translate(414,395)" d="m0 0h16l27 5 16 5 14 7 10 9 5 8 3 12v10l-4 16-4 9-7 11-9 9-11 7-9 3-5 1h-14l-12-3-13-7-10-9-7-8-5-10-3-15v-12l4-20 3-7h1l-1 10-1 11v15l3 16 4 8 7 9 13 9 14 5 6 1h9l9-2 12-7 7-7 8-12 5-15v-20l-5-10-9-7-10-5-34-9-14-4h-8l-7 3-5 4 1-5 8-8z" fill="#020202"/>
<path transform="translate(565,714)" d="m0 0 3 3 5 26 4 7 9 3 3 8 5 27 3 24v9l-5-2-8-6-6-2-6 8-4-1-6-7 4-19 3-19v-22l-2-9-8-16-4-4 1-3z" fill="#C8D5DB"/>
<path transform="translate(519,117)" d="m0 0h50l24 3 18 4 13 4 17 8 18 12 3 3-1 4-4 3-6-1-23-11-13-5-25-6-31-4-24-2-14-9z" fill="#F7E16E"/>
<path transform="translate(685,929)" d="m0 0h1v12l-5 26-8 31-6 20-2 6h-42l6-8 10-11 10-13 12-17 9-15 10-19 4-11z" fill="#030303"/>
<path transform="translate(711,354)" d="m0 0 5 1 8 6 7 7 9 13 8 16 5 17 2 13-1 16-4 12-7 9-8 5-5 1h-7l-10-3-11-8-7-10-5-13-3-14v-24l5-13 4-7 1 2-4 14-1 16 3 18 4 12 5 10 6 7 12 6h8l7-4 6-9 3-12v-8l-3-16-6-16-8-15-8-11-7-8-5 1-8 7-1-3 5-9z" fill="#020202"/>
<path transform="translate(682,857)" d="m0 0 4 5 4 6v28l-3 24-4 15-5 12-12 22-11 16-12 16-11 13-9 10h-13l6-7 10-9 7-7 8-10 5-6 4 1-1-4 4-4 3-2-1-4 12-23 6-15 4-15 3-17 1-40z" fill="#9BAFB6"/>
<path transform="translate(301,629)" d="m0 0 4 5 8 11 9 10 10 9 17 10 16 8 8 3-4 1 5 5 9 3 3 2v2l-16-2-7-2-11-1-12-5-11-5-5-3-8-7h-5l-6-13-4-20z" fill="#798C97"/>
<path transform="translate(880,279)" d="m0 0h1v24l-3 21-5 16-7 16-11 18-11 13-2-1-5-19-1-9 15-14 10-11 8-15 4-14 1-6 1-18h1l1 14h3z" fill="#9BAFB6"/>
<path transform="translate(647,552)" d="m0 0h25l-2 3-15 5-25 5-42 6-31 3h-7l3-3 20-8 19-5 16-3 18-2z" fill="#020202"/>
<path transform="translate(681,326)" d="m0 0 5 1 1 3-1 1 4 1-1-3 4 1 1-2 9 5v2h3l1-2 6 2 1 3v2l3 2v6l-1 3-2 2h-3l-2 4-5 6-5-2-10-9-6-1-1 3-5-2-9-9-1-3h4v-3l6-3 1-3-2-1 2-3z" fill="#9EB3B9"/>
<path transform="translate(585,701)" d="m0 0 4 4 6 8 14 14 7 9v2l-20 4-12 1-4-6-6-24 1-5z" fill="#798C97"/>
<path transform="translate(412,655)" d="m0 0 3 1-2 4-10 11-6 1-4-1v2l8 1 10 2h5l-3-1v-2l5-1 1-3 5-4 4-6 3 1-1 5-4 5-1 5 7-2 8-6h3l1-3 6 2 1 4-3 4-1 5 4 1 2-1 2 1 1-3 6-2 4-2-2 6-4 5 11-1 8-8 4 1 2 3 3 1 2 4-1 1 3 1v-2l7-4 4 2v2h2l1-2 1 3h19v1l-17 1h-26l-35-3-24-3-34-7-8-2v-1l10-2 6-2 4-2 7-6z" fill="#9DB2B9"/>
<path transform="translate(664,340)" d="m0 0 4 1 7 8 5 4h2l1-2h6l11 10 3 1-1 6-2 6-6 9-6 13-2 1-4-11-6-12-6-18-6-13z" fill="#CDD9E0"/>
<path transform="translate(602,701)" d="m0 0 10 3 15 4 18 2 3 2 3 10 1 4h-3l-6 12-3 2h-11l-4-10-12-16-11-12z" fill="#798C97"/>
<path transform="translate(354,630)" d="m0 0 1 3-7 14-3 4 11-2 9-4h3l2-5 2-2h3l-2 5-2 3-2 6-3 7 14-4 9-4 4-5 3 1-1 4-5 4-7 10-1 6-12-2-10-3-9-3-12-5-4-3v-2h-2l1-3 1 2 5-1 6-7 6-12z" fill="#798C97"/>
<path transform="translate(692,701)" d="m0 0h5l4 7v4l-12 2 3 10 5 16 1 10-4 1-4-4-14-22-8-14v-3l21-6z" fill="#C4D2D8"/>
<path transform="translate(686,771)" d="m0 0h2l7 19 4 19 2 23-1 20-1 3h-6l-4-4v-40l-3-33-1-6z" fill="#9CB1B7"/>
<path transform="translate(661,776)" d="m0 0 12 2 4 3 3 17 1 12v41l1 6-2-1-4-19-2-7-4-17-2-12-3-9-1-8-2-6z" fill="#99AEB5"/>
<path transform="translate(428,246)" d="m0 0 7 1 11 6 4 6 1 4-3 5-5 3h-8l-8-3-8-7-3-5 1-5 6-4z" fill="#F1F3F4"/>
<path transform="translate(306,597)" d="m0 0 4 4 10 6 8 10 2 9 5-1 4-1-2 4h-4l-1 14 11-5 5-1-1 3-12 6h-2l-1 5-1-4 1-3-5-1-3-4 4-1 3 1-1-8-3 5-7 2-5-6-4-9 1-2 1 3h4l1-4h2l-1-2h-7l-4-2-2-14z" fill="#798C97"/>
<path transform="translate(565,714)" d="m0 0 3 3 5 26 4 7 9 3 3 8 1 10-2-4v-5l-7 3-8-1-2-1v10h-1l-1-22-2-9-8-16-4-4 1-3z" fill="#98ACB3"/>
<path transform="translate(701,229)" d="m0 0 8 1 7 3 8 7 5 8-1 2-7 2h-8l-9-4-6-9-1-4 3-5z" fill="#EFF1F3"/>
<path transform="translate(620,708)" d="m0 0 14 1 11 1 3 2 3 10 1 4h-3l-6 12-3 2h-11l-4-10-12-16v-2h2l4 4v3l4 1 3 3v2l4 1v3h5l-1 4h-2v2h3v2l-2 1 6 1-1-10 2-2 1-10-4-2-2-2-7-1-5-1v-2z" fill="#9BB0B6"/>
<path transform="translate(528,729)" d="m0 0h3l7 14 1 9-3-4-7-3-10-6-3-3-14 2-18 3-20 2h-25v-1l24-1 25-3 22-4 16-4z" fill="#8FA3AB"/>
<path transform="translate(464,673)" d="m0 0h2l-2 6-4 5 11-1 8-8 4 1 2 3 3 1 2 4-1 1 3 1v-2l7-4 4 2v2h2l1-2 1 3h19v1l-17 1h-26l-35-3-7-1v-1h11l2-1v2l3-1 3-5z" fill="#90A4AC"/>
<path transform="translate(412,655)" d="m0 0 3 1-2 4-10 11-6 1-4-1v2l8 1 10 2h5l-3-1v-2l5-1 1-3 5-4 4-6 3 1-1 5-6 8v2l-4 2 6 2h7l8 2v1h-9l-24-4-26-6v-1l10-2 6-2 4-2 7-6z" fill="#798C97"/>
<path transform="translate(371,737)" d="m0 0 23 3 34 2v1h-25l-1 3-10 2-11 6-10-15z" fill="#B7C5CC"/>
<path transform="translate(715,353)" d="m0 0 5 2 10 10 5 3 4 5 3 5 1 3h2l6 9 2 1v2l7-1 6-3 5 1 7 11 2 2 1 6 3 1 3 7 1 3h2l2 9-2-2-1-5h-3l-8-13-6-10-3-6-7 1-8 3h-3l-7-12-2-3-2 1-7-11-11-12-6-4z" fill="#9CB0B7"/>
<path transform="translate(431,376)" d="m0 0 6 1v3l-5 1-1 4-2 1-1 3h-6v2l3 1v1l25 4 10 3-3 1-27-5h-16l-8 6-1-4 5-2 3-1v-4l2-1-2-2 14-11z" fill="#9FB3C1"/>
<path transform="translate(270,442)" d="m0 0 1 4-1 3 2 1-1 4-7 14-2 10 7-3 9-6 5-5 3-2-1 4-7 8-10 7-8 4-7 2-5 1-5 2 5-5 9-8 5-11z" fill="#798C97"/>
<path transform="translate(825,472)" d="m0 0 2 1v11l-2 4-1 13-5 15h-3v-7l4-21 1-7h3v-8z" fill="#A6BACC"/>
<path transform="translate(622,747)" d="m0 0 2 1-2 2-2 5-9 6-7 1v9h-1l-2-19 15-3z" fill="#97ACB3"/>
<path transform="translate(874,259)" d="m0 0 3 1 2 8 1 3v23h-3l-1 4-1-18-3-15v-5z" fill="#C5D3DD"/>
<path transform="translate(393,646)" d="m0 0 3 1-1 4-5 4-7 10-1 6-8-1 4-1v-6l4-2 3-5-12 7-10 1 1-3 8-2 13-6 5-3z" fill="#798C97"/>
<path transform="translate(369,648)" d="m0 0 1 3-3 4-1 4 10-2-4 3-8 2-1 2 12-3 8-5h2l-2 5-4 3-1 5h-8l-3-1v-2l-6-1-1-2z" fill="#A2B7C1"/>
<path transform="translate(161,473)" d="m0 0 5 2 21 11 18 6 14 2h7l12-3 3 1-10 4-4 1h-15l-8-2-12-4-16-8-11-6z" fill="#798C97"/>
<path transform="translate(604,330)" d="m0 0 3 1 7 8 7 3 15-1 9-1h3l-2 2-26 3-4 1-1-4-8-7-2 4-9 5h-10l3-2 7-3 6-5z" fill="#91A6AD"/>
<path transform="translate(815,513)" d="m0 0 1 3h2l-2 9-11 39-3-4 3-11 6-18z" fill="#798C97"/>
<path transform="translate(766,389)" d="m0 0 5 1 7 11 2 2 1 6 3 1 3 7 1 3h2l2 9-2-2-1-5h-3l-8-13-6-10-3-6-7 1-5 1 3-3z" fill="#9DB2B8"/>
<path transform="translate(444,664)" d="m0 0 6 2 1 4-4 6-1 3-8-1-2-2 8-4 4-4-4 1-4 3h-3l-2 4-4 2h-3l1-3 11-8h3z" fill="#798C97"/>
<path transform="translate(687,784)" d="m0 0 3 4 1 4v57l1 4 6 1 1-2v3h-6l-4-4v-40z" fill="#7E919C"/>
<path transform="translate(667,733)" d="m0 0 3 3 17 33-1 5 1 9-2-3-8-24-11-20-1-2z" fill="#9CAEB8"/>
<path transform="translate(348,634)" d="m0 0 3 1-6 12-4 2-1 3h-5l-3-1 1-6 14-7z" fill="#A8BECE"/>
<path transform="translate(365,648)" d="m0 0 1 2-6 9-3 4h-4l-1-4-4 1-5-2 4-2 7-1v-2z" fill="#ADC3DA"/>
<path transform="translate(613,712)" d="m0 0h2l4 4v3l4 1 3 3v2l4 1v3h5l-1 4h-2v2h3v2h-5l-1 3-4-10-12-16z" fill="#97ACB3"/>
<path transform="translate(409,664)" d="m0 0v3l-1 2 7 1 6-4 2 1-7 6h-3v2l4 1-4 1-8-1-12-3v-2h7l5-3z" fill="#A1B6BF"/>
<path transform="translate(559,706)" d="m0 0v3l-10 6h-6l-8-4v-2l2-1 18-1z" fill="#A3B5BC"/>
<path transform="translate(464,673)" d="m0 0h2l-2 6-4 5 11-1 8-8 4 1v2l-5 2-4 4 4 2-21-1-16-2v-1h11l2-1v2l3-1 3-5z" fill="#798C97"/>
<path transform="translate(575,749)" d="m0 0 11 4-2 3v5l-4 2-5-1-3-4v-4l3-1v-2z" fill="#798C97"/>
<path transform="translate(348,734)" d="m0 0 13 1 2 2-8 5-9 3-1-2z" fill="#B5C4CB"/>
<path transform="translate(686,771)" d="m0 0h2l4 10 3 18 1 5-5-3-2-13-2-4-2-12z" fill="#C1D0D8"/>
<path transform="translate(410,654)" d="m0 0h5l2 4-5 5-2 1 4-8-3 1-5 6-6 5-5 1-5 2h-8l-1-4 6 1 16-6 3-1 1-4z" fill="#9FB4BA"/>
<path transform="translate(799,461)" d="m0 0h1l1 8v14l-3 27-3 13h-1l1-16 2-8z" fill="#8FA3AB"/>
<path transform="translate(570,751)" d="m0 0 2 3 3 7 5 1 3-1v-6l4-1 3 12v5l-2-4v-5l-7 3-8-1-2-1v10h-1z" fill="#92A6AE"/>
<path transform="translate(479,678)" d="m0 0 6 1 3 1 2 4-1 2h-11l-5-2 5-5z" fill="#99ADB4"/>
<path transform="translate(566,130)" d="m0 0h14l31 7 4 2-4 1-21-5-21-3z" fill="#C5D1CE"/>
<path transform="translate(560,695)" d="m0 0h4l-1 3-8 1-18 1h-11l2-2 6-1z" fill="#798C97"/>
<path transform="translate(875,280)" d="m0 0h1l1 14h3v8l-1 3h-2l-1 7-2-3v-11z" fill="#A1B6CB"/>
<path transform="translate(874,259)" d="m0 0 3 1 2 11-1 7-3 2-3-15v-5z" fill="#B8C8D2"/>
<path transform="translate(526,730)" d="m0 0 2 1v2l1 3h-2l5 6 2 1v2l-5-2v-2l-7-2-2-3 1-1-7-1v-1z" fill="#798C97"/>
<path transform="translate(334,650)" d="m0 0 1 2h4v2l7 1 4-1 4 1-6 2-4 1 8 1 1 4-10-3-8-5v-2h-2z" fill="#91A5AD"/>
<path transform="translate(720,222)" d="m0 0 8 6 11 11-3 3-9-11-9-7z" fill="#93A7AF"/>
<path transform="translate(648,1009)" d="m0 0 1 3-5 12h-7l2-4z" fill="#95A7B0"/>
<path transform="translate(383,656)" d="m0 0h2l-2 5-4 3-1 5h-8l-3-2h8l1-2-4-2z" fill="#9AAFB5"/>
<path transform="translate(667,733)" d="m0 0 3 3 11 21-3 2-8-16-5-9z" fill="#8396A0"/>
<path transform="translate(818,499)" d="m0 0 2 3 3-3 1 2-5 15h-3v-7z" fill="#97ABB3"/>
<path transform="translate(602,701)" d="m0 0 10 3 7 2v2l-3 2-7-1-7-7z" fill="#798C97"/>
<path transform="translate(431,376)" d="m0 0 6 1v3l-6 3-3 1 1-5-7 5-2-1 7-6z" fill="#97AAB3"/>
<path transform="translate(435,131)" d="m0 0h7l-1 5-18-1v-2z" fill="#DDD485"/>
<path transform="translate(510,734)" d="m0 0h12l-1 3 8 4 4 5-4-1-10-6-3-3h-7z" fill="#9CB0B7"/>
<path transform="translate(823,487)" d="m0 0h1v12l-3 1-1 5h-1v-10h2l1-7z" fill="#BFCED8"/>
<path transform="translate(462,355)" d="m0 0 2 1-3 3 4 5-3 1-4-2-6-1 5-4z" fill="#92A5B0"/>
<path transform="translate(651,338)" d="m0 0h3l-2 5-8 3-1-3h-6v-1l9-1z" fill="#9FB4BA"/>
<path transform="translate(536,137)" d="m0 0 10 1 5 3 9 1v1h-12l-8-2z" fill="#798C97"/>
<path transform="translate(872,254)" d="m0 0 2 2h3l2 8-1 4-2-7-5 1-1-7z" fill="#A3B6C2"/>
<path transform="translate(392,645)" d="m0 0 3 1-5 5-5 3-9 3 4-4 6-3h2l2-4z" fill="#9FB4BA"/>
<path transform="translate(424,671)" d="m0 0 1 4 4 1-1 2 2 1-4 1-6-2-1-2 5-1-1-3z" fill="#A1B6BF"/>
<path transform="translate(581,692)" d="m0 0 3 1v2l-11 2h-4v-3z" fill="#798C97"/>
<path transform="translate(646,339)" d="m0 0 2 1-2 2-27 3-1-3 18-1 9-1z" fill="#798C97"/>
<path transform="translate(370,638)" d="m0 0 2 1-4 6-12 5-4-1 15-7z" fill="#9FB4BA"/>
<path transform="translate(710,215)" d="m0 0 4 1 6 5v2l-5-1-5-4z" fill="#97AAB2"/>
<path transform="translate(813,173)" d="m0 0 6 2 13 10-1 2-8-6-10-7z" fill="#AABCC7"/>
<path transform="translate(510,334)" d="m0 0 2 1-5 9-4-1v-2l2-1-1-4z" fill="#81949E"/>
<path transform="translate(662,333)" d="m0 0 1 4 4 2-4 1-6 2 1-6z" fill="#9FB4BA"/>
<path transform="translate(559,706)" d="m0 0v3l-5 2-3-1-14-1v-1l18-1z" fill="#879AA4"/>
<path transform="translate(715,353)" d="m0 0 5 2 10 10v3l-9-9-5-3z" fill="#90A5AD"/>
<path transform="translate(604,335)" d="m0 0 2 3-10 6h-10v-1l11-2z" fill="#9BB0B7"/>
<path transform="translate(535,822)" d="m0 0h1v18h3l-1 3-4-1-1-5z" fill="#798C97"/>
<path transform="translate(692,784)" d="m0 0 2 3 3 11v5l-3-4-1-7z" fill="#8EA2AA"/>
<path transform="translate(603,332)" d="m0 0 1 4-7 6-8 1 2-2 5-2 6-5z" fill="#798C97"/>
<path transform="translate(801,560)" d="m0 0h2l1 7-2 4-2-3-2 1z" fill="#90A4AC"/>
<path transform="translate(412,389)" d="m0 0 4 1-3 1v4l-4 3-4-1z" fill="#C8D6DF"/>
<path transform="translate(474,349)" d="m0 0 2 1v2l3 1v3l-5-1-6-2 4-3z" fill="#8DA1AA"/>
<path transform="translate(479,678)" d="m0 0h2v5l-4 2-4-1 5-5z" fill="#B0C4D3"/>
<path transform="translate(667,733)" d="m0 0 3 3 3 6v3h-2l-6-11z" fill="#8A9EA6"/>
<path transform="translate(351,430)" d="m0 0 2 4-2 4-5 5 3-9z" fill="#798C97"/>
<path transform="translate(620,708)" d="m0 0 14 1-2 2-7 1-2-1v-2z" fill="#92A6AE"/>
<path transform="translate(606,704)" d="m0 0 5 1 1 2h7l-3 3-7-1-3-3z" fill="#9CB1B7"/>
<path transform="translate(797,505)" d="m0 0h1l-1 10-2 8h-1l1-15z" fill="#8A9EA7"/>
<path transform="translate(750,228)" d="m0 0h9l-1 3-3 2-4-1z" fill="#ADBFCC"/>
<path transform="translate(720,222)" d="m0 0 8 6v3l-5-3-5-5z" fill="#889CA5"/>
<path transform="translate(679,758)" d="m0 0 3 1 2 6-1 5-2-3-2-5z" fill="#91A6AD"/>
<path transform="translate(270,76)" d="m0 0 4 2 5 8-1 3-8-11z" fill="#B8C7CE"/>
<path transform="translate(569,726)" d="m0 0h1l1 12-1-2-3-1-1-5h2z" fill="#798C97"/>
<path transform="translate(365,648)" d="m0 0 1 2-3 5-2-3-4 2-3-1z" fill="#9FB4BA"/>
<path transform="translate(349,644)" d="m0 0h1v6l2 1-8 1 3-5z" fill="#9FB4BA"/>
</svg>
